<svg width="208" height="41" fill="none" xmlns="http://www.w3.org/2000/svg"><g clip-path="url(#a)"><mask id="b" style="mask-type:luminance" maskUnits="userSpaceOnUse" x="0" y="-1" width="208" height="42"><path d="M0 0h208v41H0V0Z" fill="#fff"/></mask><g mask="url(#b)"><path fill-rule="evenodd" clip-rule="evenodd" d="M13.935 36.122a.871.871 0 0 1-.685-.344 2.436 2.436 0 0 1-.45-1.029 13.958 13.958 0 0 1-.25-1.44c-.07-.623-.105-1.25-.106-1.877-.02-1.378-.016-2.756.014-4.134.018-.846.026-1.506.026-1.982V9.564c0-.776.005-1.366.014-1.77.009-.406.04-.864.091-1.375.03-.38.096-.756.199-1.123.1-.283.233-.553.395-.806.15-.265.368-.484.633-.634.308-.154.625-.29.949-.41a6.32 6.32 0 0 1 1.291-.33c.574-.084 1.15-.154 1.728-.212V1.45l-.45-.45H1.412l-.422.45v1.242c2.672.16 4.166.917 4.482 2.273a20.91 20.91 0 0 1 .264 3.462v24.127a24.227 24.227 0 0 1-.159 3.753 1.73 1.73 0 0 1-.316.528 9.908 9.908 0 0 1-.645.7c-.18.173-.35.354-.514.542v.925c13.587 0 21.997.088 25.23.265l1.135-3.832-.712-.503c-5.25.661-10.53 1.058-15.819 1.19l-.001.001Zm25.256-11.046a.735.735 0 0 1-.158.026c-.263 0-.395-.096-.395-.29.001-.876.067-1.75.198-2.617.148-.944.395-1.87.738-2.76.33-.904.784-1.758 1.347-2.538a6.33 6.33 0 0 1 5.128-2.524 4.138 4.138 0 0 1 3.664 1.824 7.255 7.255 0 0 1 1.24 4.175 1.339 1.339 0 0 1-.884 1.242 43.096 43.096 0 0 1-4.416 1.507c-2.107.62-4.207 1.264-6.3 1.93a.734.734 0 0 0-.162.025Zm15.66 8.245c-3.165 1.92-5.898 2.88-8.198 2.88a7.497 7.497 0 0 1-4.377-1.295 7.837 7.837 0 0 1-2.755-3.237 9.994 9.994 0 0 1-.883-4.188c11.495-3.576 17.295-5.365 17.4-5.365a1.948 1.948 0 0 0 1.555-2.008 7.538 7.538 0 0 0-.883-3.726 6.445 6.445 0 0 0-2.386-2.47 11.554 11.554 0 0 0-3.256-1.296 16.618 16.618 0 0 0-3.785-.41 15.96 15.96 0 0 0-6.642 1.335 12.734 12.734 0 0 0-4.758 3.568 16.223 16.223 0 0 0-2.755 5.021 17.956 17.956 0 0 0-.95 5.827c0 4.07 1.1 7.118 3.296 9.144 1.986 1.85 4.79 2.774 8.41 2.774a13.573 13.573 0 0 0 5.972-1.453 46.106 46.106 0 0 0 6.393-3.86l-.577-1.028-.821-.213ZM90.36 5.456a7.717 7.717 0 0 0-3.876-4.202 16.364 16.364 0 0 0-6.986-1.268 20.517 20.517 0 0 0-5.18.634 15.764 15.764 0 0 0-4.456 1.903 9.155 9.155 0 0 0-3.203 3.45 10.305 10.305 0 0 0-1.187 5.007c0 1.247.302 2.476.883 3.58a10.004 10.004 0 0 0 2.215 2.895 26.924 26.924 0 0 0 3.11 2.365 36.252 36.252 0 0 0 3.402 2.008c1.1.565 2.181 1.165 3.243 1.798.88.498 1.706 1.087 2.465 1.757 1.95 1.815 2.926 3.541 2.926 5.18a6.372 6.372 0 0 1-2.03 4.637 6.672 6.672 0 0 1-4.877 2.022 6.96 6.96 0 0 1-5.576-2.537 8.705 8.705 0 0 1-2.148-5.789l-1.027-.37-5.246 5.893a12.283 12.283 0 0 0 4.72 4.057 13.848 13.848 0 0 0 6.195 1.415 19.609 19.609 0 0 0 5.774-.9 21.312 21.312 0 0 0 5.326-2.445 12.874 12.874 0 0 0 3.914-3.91 9.172 9.172 0 0 0 1.516-5.035 7.807 7.807 0 0 0-.5-2.814 9.001 9.001 0 0 0-1.292-2.326 11.541 11.541 0 0 0-2.202-2.074 28.149 28.149 0 0 0-2.808-1.865 96.238 96.238 0 0 0-3.532-1.916c-.83-.402-1.648-.83-2.452-1.282-.76-.444-1.5-.923-2.218-1.434a11.12 11.12 0 0 1-2.002-1.76 8.147 8.147 0 0 1-1.266-2.062 6.28 6.28 0 0 1-.527-2.55 5.367 5.367 0 0 1 1.54-3.885 5.432 5.432 0 0 1 4.073-1.585 6.318 6.318 0 0 1 4.97 2.087 9.244 9.244 0 0 1 2.254 5.048l.923.29 5.142-4.017Zm25.638 10.135a5.334 5.334 0 0 0-1.977-1.982 9.526 9.526 0 0 0-2.61-1.017 13.372 13.372 0 0 0-2.992-.317c-1.919-.027-3.827.3-5.629.965a12.226 12.226 0 0 0-4.165 2.55 13.83 13.83 0 0 0-2.742 3.738 17.758 17.758 0 0 0-1.569 4.427 23.087 23.087 0 0 0-.474 4.73c-.006 1.35.185 2.694.566 3.988.37 1.253.945 2.436 1.7 3.502a7.846 7.846 0 0 0 3.099 2.537 10.38 10.38 0 0 0 4.521.938c4.939 0 9.579-2.176 13.92-6.527l-.527-.767-.659-.158c-3.216 2.484-6.187 3.726-8.911 3.726a6.304 6.304 0 0 1-2.939-.674 5.928 5.928 0 0 1-2.099-1.743 10.563 10.563 0 0 1-1.332-2.458 13.183 13.183 0 0 1-.751-2.708c-.14-.874-.21-1.758-.211-2.643a20.85 20.85 0 0 1 .29-3.356c.207-1.235.516-2.45.923-3.634a7.597 7.597 0 0 1 1.872-3.066 4.04 4.04 0 0 1 2.9-1.202 3.88 3.88 0 0 1 3.585 1.956 9.276 9.276 0 0 1 1.16 4.81l.923.37 4.983-2.959a6.701 6.701 0 0 0-.855-3.026Zm9.663 7.862c.134-1.038.368-2.06.699-3.052.303-.965.733-1.884 1.278-2.735a6.108 6.108 0 0 1 2.044-1.916 5.628 5.628 0 0 1 2.913-.753 5.818 5.818 0 0 1 3.15.832 5.495 5.495 0 0 1 2.043 2.273c.477.967.822 1.993 1.027 3.052.217 1.14.324 2.3.317 3.462 0 1.057-.009 1.938-.027 2.642a32.146 32.146 0 0 1-.184 2.538 15.27 15.27 0 0 1-.435 2.457c-.207.71-.476 1.4-.804 2.062a5.18 5.18 0 0 1-1.279 1.717 6.328 6.328 0 0 1-1.872 1.057 7.254 7.254 0 0 1-2.57.423 4.678 4.678 0 0 1-2.703-.82 6.061 6.061 0 0 1-1.884-2.02 12.476 12.476 0 0 1-1.134-2.762 18.33 18.33 0 0 1-.607-2.895 21.956 21.956 0 0 1-.158-2.55 24.261 24.261 0 0 1 .186-3.012Zm-3.269 13.663c1.915 1.744 4.956 2.616 9.122 2.616 1.54.01 3.076-.167 4.574-.529a13.504 13.504 0 0 0 3.978-1.704 11.786 11.786 0 0 0 3.177-2.947 13.763 13.763 0 0 0 2.083-4.387 20.91 20.91 0 0 0 .765-5.866 11.004 11.004 0 0 0-3.612-8.51c-2.198-1.972-5.388-2.959-9.57-2.959-4.183 0-7.628 1.295-10.335 3.885a12.973 12.973 0 0 0-4.06 9.804c0 4.722 1.291 8.254 3.875 10.597h.003Zm41.258-20.93c1.406 0 2.408.282 3.006.846.557.68.909 1.506 1.014 2.38.221 1.03.358 2.078.409 3.131.035.925.053 2.12.053 3.581a450.482 450.482 0 0 1-.039 5.695c-.009.572-.005 1.246.012 2.022.005.578.04 1.156.106 1.73.053.38.123.794.211 1.242.061.376.186.737.369 1.07.158.265.352.506.578.715a4.083 4.083 0 0 0 2.899 1.056c1.319 0 2.83-.67 4.535-2.008a49.653 49.653 0 0 0 4.06-3.78l-.606-.9h-.633a6.428 6.428 0 0 1-3.611 1.401 2.065 2.065 0 0 1-1.53-.555 2.052 2.052 0 0 1-.462-.514 3.798 3.798 0 0 1-.276-1.084 15.328 15.328 0 0 1-.132-2.286c0-.58.031-1.52.092-2.814.049-.92.08-1.84.093-2.762v-1.586c.017-1.709.013-2.893-.013-3.555a25.134 25.134 0 0 0-.304-2.695 4.911 4.911 0 0 0-.817-2.352 5.483 5.483 0 0 0-1.635-1.215 5.733 5.733 0 0 0-2.689-.569c-3.093 0-6.679 1.27-10.756 3.806l-.633-.238a5.015 5.015 0 0 0-.909-2.708c-.519-.68-1.411-1.018-2.676-1.018a7.2 7.2 0 0 0-2.228.383c-.835.28-1.632.662-2.374 1.136-.8.503-1.494.97-2.083 1.401-.589.431-1.27.955-2.043 1.572l.975 1.295c.179-.116.36-.23.541-.343.307-.194.575-.352.804-.476.228-.123.501-.268.817-.436.283-.154.579-.283.884-.386.233-.08.477-.125.724-.132.305-.007.606.07.87.225.268.177.47.437.578.74.132.32.246.645.342.977.108.447.17.903.185 1.362.036.6.057 1.084.064 1.453.008.37.012.924.013 1.665v.45c0 1.726-.132 7.011-.395 15.855l.659.37 5.932-1.718c-.176-.757-.308-3.144-.396-7.16-.087-3.928-.13-7.857-.128-11.787 3.058-1.656 5.237-2.484 6.538-2.484l.005.002Zm25.573 9.01a.698.698 0 0 1-.158.028c-.263 0-.395-.097-.396-.29.001-.877.067-1.75.199-2.617a13.6 13.6 0 0 1 .737-2.762c.331-.903.783-1.757 1.345-2.537a6.328 6.328 0 0 1 5.128-2.524 4.135 4.135 0 0 1 3.664 1.824 7.247 7.247 0 0 1 1.239 4.175 1.34 1.34 0 0 1-.883 1.242 43.175 43.175 0 0 1-4.415 1.507c-2.107.62-4.208 1.263-6.301 1.93a.783.783 0 0 0-.158.025h-.001Zm15.66 8.246c-3.165 1.921-5.898 2.881-8.199 2.88a7.504 7.504 0 0 1-4.377-1.294 7.834 7.834 0 0 1-2.754-3.237 10.001 10.001 0 0 1-.884-4.19c11.495-3.575 17.295-5.363 17.401-5.363a1.949 1.949 0 0 0 1.555-2.009 7.543 7.543 0 0 0-.883-3.726 6.445 6.445 0 0 0-2.386-2.47 11.561 11.561 0 0 0-3.256-1.296 16.612 16.612 0 0 0-3.786-.41 15.957 15.957 0 0 0-6.64 1.335 12.734 12.734 0 0 0-4.758 3.568 16.208 16.208 0 0 0-2.755 5.021 17.928 17.928 0 0 0-.949 5.827c0 4.07 1.098 7.117 3.295 9.144 1.986 1.85 4.789 2.774 8.41 2.774a13.573 13.573 0 0 0 5.972-1.453 46.186 46.186 0 0 0 6.393-3.859l-.577-1.029-.822-.213Z" fill="#9C9C9C"/></g></g><defs><clipPath id="a"><path fill="#fff" d="M0 0h208v41H0z"/></clipPath></defs></svg>