<svg width="56" height="56" fill="none" xmlns="http://www.w3.org/2000/svg"><circle cx="48" cy="48" r="7" transform="rotate(90 48 48)" stroke="gray" stroke-opacity=".25" stroke-width="2"/><circle cx="8" cy="8" r="7" transform="rotate(90 8 8)" stroke="gray" stroke-opacity=".25" stroke-width="2"/><circle cx="8" cy="28" r="7" transform="rotate(90 8 28)" stroke="gray" stroke-opacity=".25" stroke-width="2"/><circle cx="8" cy="48" r="7" transform="rotate(90 8 48)" stroke="gray" stroke-opacity=".25" stroke-width="2"/><circle cx="28" cy="48" r="7" transform="rotate(90 28 48)" stroke="gray" stroke-opacity=".25" stroke-width="2"/><circle cx="48" cy="48" r="3.5" transform="rotate(90 48 48)" stroke="gray" stroke-opacity=".25"/><circle cx="8" cy="8" r="3.5" transform="rotate(90 8 8)" stroke="gray" stroke-opacity=".25"/><circle cx="8" cy="28" r="3.5" transform="rotate(90 8 28)" stroke="gray" stroke-opacity=".25"/><circle cx="8" cy="48" r="3.5" transform="rotate(90 8 48)" stroke="gray" stroke-opacity=".25"/><circle cx="28" cy="48" r="3.5" transform="rotate(90 28 48)" stroke="gray" stroke-opacity=".25"/></svg>